{
    "asset" : {
        "generator" : "Khronos glTF Blender I/O v1.3.48",
        "version" : "2.0"
    },
    "scene" : 0,
    "scenes" : [
        {
            "name" : "Scene",
            "nodes" : [
                0,
                1,
                2,
                3,
                4
            ]
        }
    ],
    "nodes" : [
        {
            "name" : "RootNode"
        },
        {
            "name" : "RootNode.001"
        },
        {
            "name" : "RootNode.002"
        },
        {
            "name" : "RootNode.003"
        },
        {
            "mesh" : 0,
            "name" : "canonical_face_model.001",
            "rotation" : [
                0.7071068286895752,
                0,
                0,
                0.7071067094802856
            ]
        }
    ],
    "materials" : [
        {
            "doubleSided" : true,
            "emissiveFactor" : [
                0,
                0,
                0
            ],
            "name" : "Grid",
            "pbrMetallicRoughness" : {
                "baseColorTexture" : {
                    "index" : 0,
                    "texCoord" : 0
                },
                "metallicFactor" : 0,
                "roughnessFactor" : 0.5
            }
        }
    ],
    "meshes" : [
        {
            "name" : "canonical_face_model.001",
            "primitives" : [
                {
                    "attributes" : {
                        "POSITION" : 0,
                        "NORMAL" : 1,
                        "TEXCOORD_0" : 2
                    },
                    "indices" : 3,
                    "material" : 0
                }
            ]
        }
    ],
    "textures" : [
        {
            "source" : 0
        }
    ],
    "images" : [
        {
            "bufferView" : 4,
            "mimeType" : "image/jpeg",
            "name" : "canonical-face-texture-photoshop"
        }
    ],
    "accessors" : [
        {
            "bufferView" : 0,
            "componentType" : 5126,
            "count" : 2694,
            "max" : [
                7.7430949211120605,
                7.5865797996521,
                9.403377532958984
            ],
            "min" : [
                -7.7430949211120605,
                -2.4358670711517334,
                -8.261777877807617
            ],
            "type" : "VEC3"
        },
        {
            "bufferView" : 1,
            "componentType" : 5126,
            "count" : 2694,
            "type" : "VEC3"
        },
        {
            "bufferView" : 2,
            "componentType" : 5126,
            "count" : 2694,
            "type" : "VEC2"
        },
        {
            "bufferView" : 3,
            "componentType" : 5123,
            "count" : 2694,
            "type" : "SCALAR"
        }
    ],
    "bufferViews" : [
        {
            "buffer" : 0,
            "byteLength" : 32328,
            "byteOffset" : 0
        },
        {
            "buffer" : 0,
            "byteLength" : 32328,
            "byteOffset" : 32328
        },
        {
            "buffer" : 0,
            "byteLength" : 21552,
            "byteOffset" : 64656
        },
        {
            "buffer" : 0,
            "byteLength" : 5388,
            "byteOffset" : 86208
        },
        {
            "buffer" : 0,
            "byteLength" : 491823,
            "byteOffset" : 91596
        }
    ],
    "buffers" : [
        {
            "byteLength" : 583420,
            "uri" : "data:application/octet-stream;base64,"
        }
    ]
}
